<svg id="glipy_copy" viewBox="0 0 64 64" xmlns="http://www.w3.org/2000/svg" xmlns:xlink="http://www.w3.org/1999/xlink" data-name="glipy copy"><linearGradient id="linear-gradient" gradientUnits="userSpaceOnUse" x1="5.469" x2="58.531" y1="32" y2="32"><stop offset="0" stop-color="#00c0ff"/><stop offset="1" stop-color="#5558ff"/></linearGradient><path d="m58.52944 26.15v13.36a5.24263 5.24263 0 0 1 -1.06006 3.18l-8.28 11.04c-1.42163 1.75848-1.55328 4.11224-1.4599 6.27h-11.94009c.09747-16.01837-1.69721-11.7337 10.00012-22.59a4.40832 4.40832 0 0 1 6.21991.02.75562.75562 0 0 1 -.00995 1.1l-8.45007 8.46a.99721.99721 0 0 0 1.41009 1.40991l8.4599-8.44991a2.8549 2.8549 0 0 0 .81-1.92v-11.88a2.15005 2.15005 0 0 1 4.3 0zm-40.28 11.3a4.41822 4.41822 0 0 0 -6.25-.04.79382.79382 0 0 0 -.23.56.74956.74956 0 0 0 .23.56l8.45 8.46a.99721.99721 0 0 1 -1.41 1.41l-8.46-8.45a2.7961 2.7961 0 0 1 -.81-1.9201v-11.8799a2.15 2.15 0 0 0 -4.3 0v13.36a5.24263 5.24263 0 0 0 1.06006 3.18l8.27985 11.04c1.42242 1.7641 1.55243 4.10333 1.46014 6.27h11.94v-10.33a7.1175 7.1175 0 0 0 -2.32-5.25zm13.75.55a17 17 0 1 1 17-17 17.02419 17.02419 0 0 1 -17.00003 17zm-9.59-17 3.30005-3.29a1.0041 1.0041 0 1 0 -1.42-1.42l-4 4a1.008 1.008 0 0 0 0 1.42l4 4a1.02443 1.02443 0 0 0 .71.29 1.00973 1.00973 0 0 0 .71-1.71zm9.62006-4.24-2 8a.99922.99922 0 1 0 1.93994.48l2-8a.99938.99938 0 0 0 -1.94-.48zm11.68 3.53-4-4a1.0041 1.0041 0 1 0 -1.42 1.42l3.29994 3.29-3.30005 3.29a1.00975 1.00975 0 0 0 .71 1.71 1.02443 1.02443 0 0 0 .71-.29l4-4a1.008 1.008 0 0 0 .00004-1.42z" fill="url(#linear-gradient)"/></svg>